<mxfile host="app.diagrams.net" agent="Mozilla/5.0 (Windows NT 10.0; Win64; x64) AppleWebKit/537.36 (KHTML, like Gecko) Chrome/128.0.0.0 Safari/537.36" version="24.7.14">
  <diagram id="C5RBs43oDa-KdzZeNtuy" name="Page-1">
    <mxGraphModel dx="1562" dy="938" grid="1" gridSize="10" guides="1" tooltips="1" connect="1" arrows="1" fold="1" page="1" pageScale="1" pageWidth="827" pageHeight="1169" math="0" shadow="0">
      <root>
        <mxCell id="WIyWlLk6GJQsqaUBKTNV-0" />
        <mxCell id="WIyWlLk6GJQsqaUBKTNV-1" parent="WIyWlLk6GJQsqaUBKTNV-0" />
        <mxCell id="e4ALOp_Q2JU70yxMj8lW-4" value="" style="edgeStyle=orthogonalEdgeStyle;rounded=0;orthogonalLoop=1;jettySize=auto;html=1;labelBackgroundColor=none;fontColor=default;strokeColor=#23445D;" edge="1" parent="WIyWlLk6GJQsqaUBKTNV-1" source="e4ALOp_Q2JU70yxMj8lW-0" target="e4ALOp_Q2JU70yxMj8lW-1">
          <mxGeometry relative="1" as="geometry" />
        </mxCell>
        <mxCell id="e4ALOp_Q2JU70yxMj8lW-0" value="" style="ellipse;whiteSpace=wrap;html=1;aspect=fixed;labelBackgroundColor=none;fillColor=#182E3E;strokeColor=#FFFFFF;fontColor=#FFFFFF;" vertex="1" parent="WIyWlLk6GJQsqaUBKTNV-1">
          <mxGeometry x="625" y="110" width="30" height="30" as="geometry" />
        </mxCell>
        <mxCell id="e4ALOp_Q2JU70yxMj8lW-6" value="" style="edgeStyle=orthogonalEdgeStyle;rounded=0;orthogonalLoop=1;jettySize=auto;html=1;labelBackgroundColor=none;fontColor=default;strokeColor=#23445D;" edge="1" parent="WIyWlLk6GJQsqaUBKTNV-1" source="e4ALOp_Q2JU70yxMj8lW-1" target="e4ALOp_Q2JU70yxMj8lW-5">
          <mxGeometry relative="1" as="geometry" />
        </mxCell>
        <mxCell id="e4ALOp_Q2JU70yxMj8lW-7" value="Do the users allow the platform to help them cut off the power?" style="edgeLabel;html=1;align=center;verticalAlign=middle;resizable=0;points=[];labelBackgroundColor=none;fontColor=#FFFFFF;" vertex="1" connectable="0" parent="e4ALOp_Q2JU70yxMj8lW-6">
          <mxGeometry x="-0.4711" relative="1" as="geometry">
            <mxPoint as="offset" />
          </mxGeometry>
        </mxCell>
        <mxCell id="e4ALOp_Q2JU70yxMj8lW-1" value="&lt;span style=&quot;font-family: &amp;quot;Microsoft YaHei&amp;quot;, 微软雅黑, Arial; font-size: 13px; background-color: rgba(255, 255, 255, 0.01);&quot;&gt;Users install plugs on their electrical appliances&lt;/span&gt;" style="rounded=1;whiteSpace=wrap;html=1;fontSize=12;glass=0;strokeWidth=1;shadow=0;labelBackgroundColor=none;fillColor=#182E3E;strokeColor=#FFFFFF;fontColor=#FFFFFF;" vertex="1" parent="WIyWlLk6GJQsqaUBKTNV-1">
          <mxGeometry x="550" y="200" width="180" height="100" as="geometry" />
        </mxCell>
        <mxCell id="e4ALOp_Q2JU70yxMj8lW-10" style="edgeStyle=orthogonalEdgeStyle;rounded=0;orthogonalLoop=1;jettySize=auto;html=1;exitX=0;exitY=0.5;exitDx=0;exitDy=0;labelBackgroundColor=none;fontColor=default;strokeColor=#23445D;" edge="1" parent="WIyWlLk6GJQsqaUBKTNV-1" source="e4ALOp_Q2JU70yxMj8lW-5" target="e4ALOp_Q2JU70yxMj8lW-8">
          <mxGeometry relative="1" as="geometry" />
        </mxCell>
        <mxCell id="e4ALOp_Q2JU70yxMj8lW-11" value="Yes" style="edgeLabel;html=1;align=center;verticalAlign=middle;resizable=0;points=[];labelBackgroundColor=none;fontColor=#FFFFFF;" vertex="1" connectable="0" parent="e4ALOp_Q2JU70yxMj8lW-10">
          <mxGeometry x="-0.36" y="-3" relative="1" as="geometry">
            <mxPoint as="offset" />
          </mxGeometry>
        </mxCell>
        <mxCell id="e4ALOp_Q2JU70yxMj8lW-12" style="edgeStyle=orthogonalEdgeStyle;rounded=0;orthogonalLoop=1;jettySize=auto;html=1;exitX=1;exitY=0.5;exitDx=0;exitDy=0;labelBackgroundColor=none;fontColor=default;strokeColor=#23445D;" edge="1" parent="WIyWlLk6GJQsqaUBKTNV-1" source="e4ALOp_Q2JU70yxMj8lW-5" target="e4ALOp_Q2JU70yxMj8lW-9">
          <mxGeometry relative="1" as="geometry" />
        </mxCell>
        <mxCell id="e4ALOp_Q2JU70yxMj8lW-13" value="No" style="edgeLabel;html=1;align=center;verticalAlign=middle;resizable=0;points=[];labelBackgroundColor=none;fontColor=#FFFFFF;" vertex="1" connectable="0" parent="e4ALOp_Q2JU70yxMj8lW-12">
          <mxGeometry x="-0.3109" y="-1" relative="1" as="geometry">
            <mxPoint as="offset" />
          </mxGeometry>
        </mxCell>
        <mxCell id="e4ALOp_Q2JU70yxMj8lW-5" value="Lamp&lt;br&gt;plugged in?" style="rhombus;whiteSpace=wrap;html=1;shadow=0;fontFamily=Helvetica;fontSize=12;align=center;strokeWidth=1;spacing=6;spacingTop=-4;labelBackgroundColor=none;fillColor=#182E3E;strokeColor=#FFFFFF;fontColor=#FFFFFF;" vertex="1" parent="WIyWlLk6GJQsqaUBKTNV-1">
          <mxGeometry x="590" y="390" width="100" height="80" as="geometry" />
        </mxCell>
        <mxCell id="e4ALOp_Q2JU70yxMj8lW-15" style="edgeStyle=orthogonalEdgeStyle;rounded=0;orthogonalLoop=1;jettySize=auto;html=1;exitX=0.5;exitY=1;exitDx=0;exitDy=0;entryX=0;entryY=0.5;entryDx=0;entryDy=0;labelBackgroundColor=none;fontColor=default;strokeColor=#23445D;" edge="1" parent="WIyWlLk6GJQsqaUBKTNV-1" source="e4ALOp_Q2JU70yxMj8lW-8" target="e4ALOp_Q2JU70yxMj8lW-14">
          <mxGeometry relative="1" as="geometry" />
        </mxCell>
        <mxCell id="e4ALOp_Q2JU70yxMj8lW-8" value="&lt;span style=&quot;font-family: &amp;quot;Microsoft YaHei&amp;quot;, 微软雅黑, Arial; font-size: 13px; background-color: rgba(255, 255, 255, 0.01);&quot;&gt;The platform learns user behavior through AI to help users turn off electrical appliances&lt;/span&gt;" style="rounded=1;whiteSpace=wrap;html=1;fontSize=12;glass=0;strokeWidth=1;shadow=0;labelBackgroundColor=none;fillColor=#182E3E;strokeColor=#FFFFFF;fontColor=#FFFFFF;" vertex="1" parent="WIyWlLk6GJQsqaUBKTNV-1">
          <mxGeometry x="360" y="500" width="180" height="100" as="geometry" />
        </mxCell>
        <mxCell id="e4ALOp_Q2JU70yxMj8lW-16" style="edgeStyle=orthogonalEdgeStyle;rounded=0;orthogonalLoop=1;jettySize=auto;html=1;exitX=0.5;exitY=1;exitDx=0;exitDy=0;entryX=1;entryY=0.5;entryDx=0;entryDy=0;labelBackgroundColor=none;fontColor=default;strokeColor=#23445D;" edge="1" parent="WIyWlLk6GJQsqaUBKTNV-1" source="e4ALOp_Q2JU70yxMj8lW-9" target="e4ALOp_Q2JU70yxMj8lW-14">
          <mxGeometry relative="1" as="geometry" />
        </mxCell>
        <mxCell id="e4ALOp_Q2JU70yxMj8lW-9" value="&lt;span style=&quot;font-family: &amp;quot;Microsoft YaHei&amp;quot;, 微软雅黑, Arial; font-size: 13px; background-color: rgba(255, 255, 255, 0.01);&quot;&gt;Users log in to the platform to remotely turn off their electrical appliances through the platform&lt;/span&gt;" style="rounded=1;whiteSpace=wrap;html=1;fontSize=12;glass=0;strokeWidth=1;shadow=0;labelBackgroundColor=none;fillColor=#182E3E;strokeColor=#FFFFFF;fontColor=#FFFFFF;" vertex="1" parent="WIyWlLk6GJQsqaUBKTNV-1">
          <mxGeometry x="750" y="500" width="180" height="100" as="geometry" />
        </mxCell>
        <mxCell id="e4ALOp_Q2JU70yxMj8lW-19" value="" style="edgeStyle=orthogonalEdgeStyle;rounded=0;orthogonalLoop=1;jettySize=auto;html=1;labelBackgroundColor=none;fontColor=default;strokeColor=#23445D;" edge="1" parent="WIyWlLk6GJQsqaUBKTNV-1" source="e4ALOp_Q2JU70yxMj8lW-14" target="e4ALOp_Q2JU70yxMj8lW-17">
          <mxGeometry relative="1" as="geometry" />
        </mxCell>
        <mxCell id="e4ALOp_Q2JU70yxMj8lW-14" value="" style="rhombus;whiteSpace=wrap;html=1;shadow=0;fontFamily=Helvetica;fontSize=12;align=center;strokeWidth=1;spacing=6;spacingTop=-4;labelBackgroundColor=none;fillColor=#182E3E;strokeColor=#FFFFFF;fontColor=#FFFFFF;" vertex="1" parent="WIyWlLk6GJQsqaUBKTNV-1">
          <mxGeometry x="590" y="660" width="100" height="80" as="geometry" />
        </mxCell>
        <mxCell id="e4ALOp_Q2JU70yxMj8lW-20" value="" style="edgeStyle=orthogonalEdgeStyle;rounded=0;orthogonalLoop=1;jettySize=auto;html=1;labelBackgroundColor=none;fontColor=default;strokeColor=#23445D;" edge="1" parent="WIyWlLk6GJQsqaUBKTNV-1" source="e4ALOp_Q2JU70yxMj8lW-17" target="e4ALOp_Q2JU70yxMj8lW-18">
          <mxGeometry relative="1" as="geometry" />
        </mxCell>
        <mxCell id="e4ALOp_Q2JU70yxMj8lW-17" value="&lt;span style=&quot;font-family: &amp;quot;Microsoft YaHei&amp;quot;, 微软雅黑, Arial; font-size: 13px; background-color: rgba(255, 255, 255, 0.01);&quot;&gt;The platform records users&#39; electricity consumption data&lt;/span&gt;" style="rounded=1;whiteSpace=wrap;html=1;fontSize=12;glass=0;strokeWidth=1;shadow=0;labelBackgroundColor=none;fillColor=#182E3E;strokeColor=#FFFFFF;fontColor=#FFFFFF;" vertex="1" parent="WIyWlLk6GJQsqaUBKTNV-1">
          <mxGeometry x="550" y="810" width="180" height="100" as="geometry" />
        </mxCell>
        <mxCell id="e4ALOp_Q2JU70yxMj8lW-22" value="" style="edgeStyle=orthogonalEdgeStyle;rounded=0;orthogonalLoop=1;jettySize=auto;html=1;labelBackgroundColor=none;fontColor=default;strokeColor=#23445D;" edge="1" parent="WIyWlLk6GJQsqaUBKTNV-1" source="e4ALOp_Q2JU70yxMj8lW-18" target="e4ALOp_Q2JU70yxMj8lW-21">
          <mxGeometry relative="1" as="geometry" />
        </mxCell>
        <mxCell id="e4ALOp_Q2JU70yxMj8lW-18" value="&lt;span style=&quot;font-family: &amp;quot;Microsoft YaHei&amp;quot;, 微软雅黑, Arial; font-size: 13px; background-color: rgba(255, 255, 255, 0.01);&quot;&gt;The platform pushes weekly reports on users’ electricity usage to users.&lt;/span&gt;" style="rounded=1;whiteSpace=wrap;html=1;fontSize=12;glass=0;strokeWidth=1;shadow=0;labelBackgroundColor=none;fillColor=#182E3E;strokeColor=#FFFFFF;fontColor=#FFFFFF;" vertex="1" parent="WIyWlLk6GJQsqaUBKTNV-1">
          <mxGeometry x="550" y="960" width="180" height="100" as="geometry" />
        </mxCell>
        <mxCell id="e4ALOp_Q2JU70yxMj8lW-21" value="" style="ellipse;whiteSpace=wrap;html=1;aspect=fixed;labelBackgroundColor=none;fillColor=#182E3E;strokeColor=#FFFFFF;fontColor=#FFFFFF;" vertex="1" parent="WIyWlLk6GJQsqaUBKTNV-1">
          <mxGeometry x="625" y="1120" width="30" height="30" as="geometry" />
        </mxCell>
      </root>
    </mxGraphModel>
  </diagram>
</mxfile>
